<svg viewBox="0 0 117.89 167.95" xmlns="http://www.w3.org/2000/svg">
  <style>
    path {
      fill: #000000;
    }
    @media (prefers-color-scheme: dark) {
      path {
        fill: #ffffff;
      }
    }
  </style>
  <path d="m59 38.21s-37.48 50-37.48 70.68a37.48 37.48 0 0 0 75 0c-.09-20.69-37.52-70.68-37.52-70.68zm-1.3 89.13a6 6 0 0 1 -7.44 4.2 6.1 6.1 0 0 1 -1.06-.4l-.26-.13a28.4 28.4 0 0 1 -7-5 27.29 27.29 0 0 1 -5-6.7 26.19 26.19 0 0 1 -2.66-7.75 25.47 25.47 0 0 1 -.16-8 3.51 3.51 0 0 1 7 .32v.12a17.94 17.94 0 0 0 1.16 5.53 16.81 16.81 0 0 0 11.22 10.38 6 6 0 0 1 4.2 7.43z"/><path class="docs-logo" fill="#191919" d="m91.89 47.39c-12.34-19.86-24.48-36.1-25-36.78l-7.89-10.61-8 10.61c-.51.68-12.65 16.92-25 36.78-17.5 28.17-26 48.32-26 61.61a58.95 58.95 0 1 0 117.89 0c0-13.29-8.5-33.44-26-61.61zm-32.89 110.61a49 49 0 0 1 -49-49c0-27.06 49-92.43 49-92.43s49 65.37 49 92.43a49 49 0 0 1 -49 49z"/>
</svg>